<svg xmlns="http://www.w3.org/2000/svg" viewBox="0 0 100 112">
    <style>
        path {
        fill: #242048;
        fill-rule: evenodd;
        }
        @media ( prefers-color-scheme: dark ) {
        path {
        fill: #ffffff;
        }
        }
    </style>
    <path d="M67.17,18.5c2.6-.32,5.49-1.21,8.39-1.14,12.38,.27,13.21,14.52,5.41,23.32-5.43,6.14-11.33,7.73-18.98,6.65-2.61-.37-7.77-.3-8.79,.07-1.54,.55-4.03,2.03-3.8,1.62,1.62-2.83,9.38-4.35,11.61-7.36,4.54-5.38,6.16-16.31,6.16-23.13m-1,29.71c17.9,.11,25.68-21.84,16.1-29.35-1.42-1.12-3.82-1.79-6.81-1.94-2.65-.14-5.83,.88-7.83,1.06-.34,.03-.32-1.28,.18-1.47,1.62-.61,5.88-1.85,8.25-2.09,9.3-.97,15.73,6.42,15.64,15.77-.05,5.72-2.13,12.07-4.74,15.37-8.96,11.3-21.15,11.69-33.71,10.58-3.61-1.15-2.63-.75-3.72-1.05-.92,0-.05-3.69,.24-4.24,1.6-4.95,11.3-2.66,16.4-2.63m-23.07-3.44v.18c3.8-.44,16.34-28.88,13.18-31.32-.54-.46-2.99,2.81-2.65,1.8,.46-1.35,2.92-6.04,4.61-4.36,3.33,1.8-7.62,52.7-17.7,39.87-1.76-.89-2.07-6.23-.21-7.14,1.02-1.06,3.27-1.07,2.77,.98m-8.97-10.31c-.51,.96-1.04,2.39-.33,3.51,2.28,.97,1.52-4.55,.33-3.51m-1.81,.41c.08-.26,1.13-2.02,1.42-2.05,2.08-.94,2.83,6.9,.12,6.9-1.75,0-2.24-3.72-1.55-4.85m4.29,12.45c-1.63-.2-1.39-5.99,.62-7.07,.76-.81,2.36-2.12,3.33-2.58,1.23-.78,3.37,1.07,3.95,1.86,.1,.09,.11,1.17-.24,1.17-.26,0-1.71-.57-1.71-.82-1.36-1.32-2.44,.77-3.89,1.58-1.51,1.35-1.24,2.67-1.48,4.46,0,0,.35,1.5-.57,1.39m-1.34,2.99c.47,.09,.82,1.01,.82,1.33,0,2.24-.67,4.46-.41,6.74,.75,2.59,.79,4.79,1.49,6.95,.39,.66,1.02,1.96,1.12,2.68,.83,1.75,1.58,3.37,1.59,5.38,.2,1.47,.33,3.07,.23,4.56,.3,2.2-1.24,.36-1.35-.82-.01-.03-.01-.07-.01-.11-.02-.06-.02-.12-.02-.18-.07-.44-.01-1.26,.02-1.71,0-2.59-1.37-5.01-1.9-7.47-.69-1.77-2.42-4.2-2.45-6.09h0c-.09-.26-.25-.8-.25-1.07h0c-.42-1.4-.34-3.37-.34-4.77,0-.62-.13-1.81,.16-2.36,0-.21,.59-3.81,1.32-3.06m-15.93,5.88c1.16,1.45-3.98,6.82-5.05,7.57-.62,.99-.81,1.7-1.92,3.18-1.28,1.54-5.23,8.99-5.91,8.99-1.92,0,2.68-7.11,2.83-7.65,0,0,2.16-3.06,2.34-3.28,.68-.75,1.58-2.57,2.45-3.04,1.58-1.54,3.37-3,4.26-5.1,.08-.43,.64-1.47,1-.67m26.87,.01c1.17,.4-.09,9.92-.09,11.24,0,.93-1.42,6.7-2.43,6.7s-.27-2.45-.07-2.81c1.06-3.4,1.4-9.68,1.63-13.28,.03-.5,.17-2.13,.95-1.84M5.84,77.95c.94-.02,2.04,2.14,2.38,2.86,.4,.85,1.42,1.76,1.8,2.61,1.18,1.16,2.27,2.42,3.64,3.34,1.17,.51,6.1,3.07,6.69,3.94,.22,.19-.04,.69-.19,.44-.63,.17-3.16-.96-3.71-1.33-2.01-.88-4.81-2.18-6.2-3.89-1.33-1.31-2.84-3.35-3.61-5.07-.24-.33-1.02-2.15-1.02-2.62v.04c-.1-.18,.03-.44,.23-.32m28.09,29.65c.2,.01,.75-.12,.8-.09,1.03,0,2.12-.16,2.45-1.25,0-1.72-1.4-1.24-2.22-.47-.04,.07-.4-.42-.7-.42-.28,0-1.48,.86-1.48,.72-.61-.44-1.06-.81-1.84-.81l.05-.06c-.35,.38-1.87-.54-2.1,.24v-.02c-.08,2.16,3.62,2.08,5.03,2.14h0Zm3.74-2.33c2.23-3.49-.45-7.12,.06-10.76,.47-3.31,1.14-5.47,1.07-7.64-.2-4.82-2.19-8.19-5.98-15.39-.68-1.45-3.85-5.08-4.97-6.31-.59-.66-1.81-1.2-2.54-1.67-4.66-2.16-7.02,5.08-7.27,9-.17,4.73,4.07,10.13,7.63,13.59,3.19,3.09,5.39,11.11,3.54,15.36-.22,1.64-1.36,1.79,.29,3.32,.5,.09,.81,.23,1.22,.02,.59-.6,1.96-.01,2.37,.45,.56-.39,1.69-.92,2.29-.5,.84-.6,1.41,.01,2.3,.52m1.55,5.16c.21,.49,1.74,.85,2.39,1.09h0c.9,.21,1.79-.05,2.67,.11h.07c.52,.03,1.21,.01,1.59-.43,.26,.2,.62,.17,.93,.16h0c.22-.03,.45-.06,.67-.09,1.94-.25-.4-2.9-1.45-1.52-.07,.14-.26,.2-.36,.06-1.34-1.13-1.66,.8-2.49-.41-.98-.81-4.03-.28-4.03,1.05m-19.62-.53c-.06,.09-.21,.25-.3,.33-1.15,1.4,3.88,1.4,4.57,.97,.51,.56,2.6,.14,3.32,.19,2.99-.18,.86-2.82-.55-1.92-.41,.35-.56,.15-1.04,.01-.32,0-1.36,.33-1.39,.22-.66-1.24-3.8-.32-4.62,.2m-3.93-1.43c-.86-.31-1.12,.41-1.98,.02-.33-.1-1.48,.47-1.48,.38,0-.45-.58-.33-.75-.51l.03,.03c-.92,0-5.1,1.24-3.77,2.27l.59-.02c.81,.05,2.82,.19,3.57-.16l.23,.12h-.04c.6,.12,1.19,.21,1.73-.18,.73,.8,3.91-.04,1.86-1.94m11.68-45.34c5.65,3.11,11.39,15.47,12.81,21.74,.25,1.08-.04,4.22-.25,5.26-.34,1.66-1.37,4.13-.98,6.38,.55,1.99,.53,4.46,.68,6.57-.78,4.9-3.04,5.18-6.27,5.18-.14,.64,2.08,1.44,2.58,1.66,2.14,.58,3.04-1.09,3.43-1.33,1.23-1.3,3.71,.74,5.02,.05,.77-.75,1.11-.01,1.88,.1,.97-.49,.76-.44,1.7,.07-.08-.24,.74-.07,.53-.53-.84-1.38-3.46-2.48-3.36-4.22,.52-2.29,1.32-4.24,.28-6.56h-.03c-.73-1.61,.34-4.19,.87-5.82,1.12-2.23,1.94-4.24,1.75-6.55,2.23-5.78,4.79-9.14,3.82-16.9-1.81,4.53-3.11,7.34-3.96,9.55-.5,2.28-2.86,5.7-4.41,7.42-.44,.48-.87,.82-1.04,.95-.67,.55-1.62,.62-1.04,.03,.72-.72,1.29-2.43,3.32-5.83,.69-1.17,1.05-1.96,1.63-3.18,.86-1.8,1.63-4.28,2.42-6.13,.41-.97,1.34-2.25,1.62-3.23,.18-.75,.89-1.07,1.21-1.7,.41-.8,.47-1.88,.81-2.75,.55-1.37,.71-3.1,.94-4.43,.16-.95-.04-.75-.04-1.54,14.96,.92,31.83-1.25,37.19-17.51,2.67-8.11,2.61-19.14-5.59-23.98-5.27-3.12-11.89-1.82-17.27,.4,1.06-13.08,3.1-11.31,14.17-8.26-.67-2.44,1.05-2.86,.54-4.22-4.14-2.89-11.82-5.86-15.97-1.8-4.14,5.13-4.59,14.83-7.85,20.72,.34-1.12,1.81-9.67,.71-11.74-3.11-3.65-5.51,3.13-6.06,5.06,.09,.2,.06,.42,.38,.25,.21-.2,2.27-1.83,2.4-1.76,2.26,.9-4.35,14.73-6.04,18.25,.02,.05,0,.08-.04,.11-.93,1.76-2.67,.68-3.93,1.39-7.42,1.97-5.21,.35-8.79-2.97-.36-.15-1.57-.38-1.12-.77,.79-.76,3.36-.05,3.5,.53,.66,.83,.9,1.76,1.56,2.61,.45,.32,1.24,.63,2.08,.03,2.38-1.59,4.74-1.05,5.52-1.6,.12-.08,.41-.18,.46-.29,.06-.13-.13-.29-.16-.44-1.7-.69-1.38-1.68-2.48-3.05-.22-.44-.76-1.44-1.19-1.26-.63,.25-1.83-.95-2.58-1.27-.63-.27-.57-.67-1.15-.8-1.93-.44-3.74,.13-5.54,1-.09,.04-1.12,.81-1.2,.86-1.16,.63-.91,1.2-1.58,2.06-.39,.5-.82,1.38-1.22,1.95-.52,.75-1.17,1.39-1.68,2.12-1.34,1.91-1.47,2.68-1.47,4.55,.61,1.25,1.55,2.86,1.8,4.22,2.08,2.57-.63,8.62-1.88,11.42-6.29,8.29-11.41-3.95-13.21-1.91-1.55,2.08-.84,4.44-2.39,6.53-1.85,2.03-2.87,3.7-4.83,5.64-2.2,3.18-4.13,5.62-5.64,9.17-.58,1.23-6.11,13.31,.55,15.94,.86,1.2,.18,.99,.54,2.33,.17,2.47,1.08,5.17,2.67,7.02l-.58,1.84c.1,1.45,.28,2.86,.47,4.29-.38,1.25-.59,2.35-.75,3.65-1.14,1.77-.69,2.11,1.46,1.93,.61-.82,2.59-1.66,3.63-1.66-.07-.3,1.37-.51,1.68,.05,.69-.36,1.12-.77,1.91-.42,.69,0,.89,.45,.94-.3-.17-1.05-.35-1.85-.5-2.91h-.03c-.05-2.06,.87-3.81,.42-5.92,.7-1.7,1.56-3.51,1.56-5.39l.42-1.07h.06l.14,.7h-.03l.14,1.93c.38,1.19,1.52,3.44,.7,4.54-1.06,1.74,.33,3.03,.25,4.84v-.03l-.61,2.48v-.03c-.29,1.09-.47,1.99-.47,3.13,.36,.78,1.34-.13,1.76,.06,1.05-.79,3.21-1.86,5.24-.99,.66-.09,1.45-.47,2.17,.11-.03-.26,1.46-.3,1.54-.06-.94-1.16-.92-1.01-.51-2.38h-.02c.08-.47,.05-.73-.05-1.19h-.02l-.17-.36c.06,.05,.35-2.3,.55-2.67,2.63-16.05-8.25-16.37-10.38-26.21-1.3-4.5-1.03-7.87,1.44-10.84,1.13-2.05,3.34-3.88,5.66-3.01-.02,0,2.47,.59,2.91,1.12m8.91,43.36c-.12,.09-.44,.21-.58,.18-.98,.57-.21-.63,.42-.84,.49-.27,.59,.63,.16,.66m-1.71-.24c.48,.89-2.13,.77-.84,.19,.1-.11,1.01-.5,.84-.19m-3.44-.23c.32,.01,.96,.27,1.12,.57,.63,.34-.49,.28-.69,.28-1,.33-.92-1.01-.43-.84m10.57,4.22c0-.84,1.07-.56,1.43-.13,.74,.41,.12,1.24-.69,.83h.01c-.56,0-.76-.01-.76-.69m3.46,.62s-.2,.04-.24,.04h0c-.14-.01-.91,.23-.6-.24,.44-1.51,1.38,.13,.84,.19m1.19-.35c-.19-.53,.62-.52,.89-.31,1.1,.39-.88,.66-.89,.31m-23.05,.2c-.23,.07-2.35,.11-1.25-.43,.27-.17,.49-.33,.81-.4,.79-.42,1.05,.8,.44,.83m2.29-.05c-.05,.04-.41,.09-.51,.09l.03-.03c-.21,.18-.99-.09-.59-.19,.12-.11,1.03-.57,1.15-.41,.15,.06,.03,.53-.08,.54m.87-.08c.5-1.41,2.39,.4,1.06,.07h0c-.11,0-.69-.02-.68-.02-.09,0-.43-.05-.38-.05m-10.71-.85c-.1,.12-.99,.08-1.14,.08h0c-.08,0-.34,.08-.34-.05,0-.91,2.01-.55,1.48-.04m-3.31,.16c.13-.39,1.4-1.01,1.18-.42,0,.14-.1,.43-.26,.43h0s-.16,.04-.2,.04h0s-.04,0-.06,0h.01s-.03,0-.05,0h.01c-.09,.05-.71-.03-.65-.05m-2.49-.01c0-.09,.63-.61,.74-.61,.02-.02,.17-.09,.2-.09h0s.03,0,.04,0c.56-.62,1.33,.93,.08,.76-.29,0-1.67-.06-1.64-.07h.59Zm3.95-64.84c-1.12-1.91,7.91-10.7,12.3-8.93,1.32,1.32,2.21,3.4,3.15,5.19,1.19,3.21,1.79,4.04-.69,7.62-1.13,.82,.38,5.66-5.5,5.51-1.45-.04-8.92-6.58-9.26-9.39"/>
    <script xmlns=""/>
</svg>