<svg width="143" height="55" viewBox="0 0 143 55" fill="none" xmlns="http://www.w3.org/2000/svg">
<g id="logo_mc 2" style="mix-blend-mode:luminosity" clip-path="url(#clip0_1569_12856)">
<path id="Vector" fill-rule="evenodd" clip-rule="evenodd" d="M12.4419 12.5079C12.3762 12.7705 12.3693 13.0607 12.5248 13.3026C13.0742 13.5375 13.1087 12.691 12.9394 12.2591C12.7252 11.7063 12.511 12.2246 12.4419 12.5079ZM12.1689 11.917C12.2899 11.7236 12.4453 11.5059 12.5041 11.499C13.2331 11.1707 13.4957 13.9176 12.5455 13.9176C12.1551 13.9176 11.9443 13.3924 11.9029 12.9087C11.8683 12.4768 11.9409 12.2798 12.1689 11.917ZM13.4439 16.5643C12.9394 16.3604 13.0431 14.467 13.7238 14.1042C13.9898 13.8209 14.5496 13.3613 14.8916 13.1989C15.2371 12.9778 15.7934 13.3544 16.101 13.655C16.2219 13.7725 16.2979 13.8209 16.2979 13.9902C16.2979 14.1076 16.2703 14.2597 16.1942 14.2597C16.1044 14.2597 15.5965 14.0593 15.5965 13.9729C15.1197 13.5099 14.7431 14.2424 14.2351 14.5257C13.665 15.0371 13.7721 15.6487 13.7376 16.3328C13.7341 16.4226 13.7099 16.5159 13.6408 16.5539C13.589 16.585 13.5095 16.585 13.4508 16.5643H13.4439ZM13.2297 17.7909C13.2884 17.898 13.3264 18.0259 13.3264 18.088C13.3264 18.8724 13.0915 19.6498 13.1813 20.4514C13.4439 21.3601 13.4577 22.1306 13.703 22.8873C13.8412 23.1188 14.0589 23.5749 14.0969 23.8271C14.3872 24.4387 14.6498 25.0088 14.6532 25.7137C14.6981 26.0488 14.7327 26.4047 14.7431 26.7537C14.7465 26.9576 14.7638 27.3549 14.7431 27.5484C14.712 27.8214 14.4735 27.5899 14.3422 27.3031C14.204 27.0025 14.2351 26.6431 14.2559 26.3218C14.2559 25.4131 13.7756 24.5666 13.589 23.7028C13.3817 23.1672 12.9014 22.4589 12.7667 21.8508C12.6976 21.5363 12.6043 21.1183 12.5628 20.8073C12.5075 20.3788 12.5214 19.8951 12.5214 19.522C12.5214 19.3043 12.4764 18.8862 12.5766 18.6962C12.5766 18.6512 12.6561 18.1399 12.7805 17.8289C12.822 17.7218 12.8703 17.6389 12.9187 17.6043C13.012 17.5387 13.1778 17.708 13.2228 17.7909H13.2297ZM7.46293 19.6844C7.65988 19.9331 7.33163 20.5067 6.90319 21.063C6.26052 21.8888 5.66968 22.5902 5.0201 23.4505C4.57092 23.9895 3.18884 26.6017 2.95043 26.6017C2.27666 26.6017 3.89025 24.1105 3.94207 23.9204C3.94207 23.9204 4.69876 22.8493 4.76096 22.7699C5.21013 22.2758 5.41399 21.8957 5.96337 21.3774C6.416 20.949 6.86518 20.5032 7.11395 19.9159C7.1416 19.7638 7.33854 19.401 7.46293 19.6809V19.6844ZM16.9544 19.7638C17.2308 20.2856 16.8473 23.1983 16.8473 23.6267C16.8473 23.9515 16.3497 25.9728 15.9973 25.9728C15.6449 25.9728 15.904 25.1159 15.9731 24.9881C16.3463 23.796 16.4637 21.5951 16.5432 20.3339C16.5536 20.175 16.5985 19.6913 16.8058 19.674C16.8749 19.6671 16.9233 19.7016 16.9544 19.7604V19.7638ZM3.00571 27.4344C3.25103 27.6624 3.47908 28.1151 3.56546 28.2982C3.70712 28.5953 4.06301 28.9132 4.19776 29.2138C4.61238 29.6215 4.99246 30.0603 5.47273 30.3851C5.8839 30.5648 7.6115 31.4597 7.81536 31.7672C7.89138 31.8329 7.80154 32.0091 7.74971 31.9227C7.52858 31.9814 6.64405 31.5875 6.45055 31.4562C5.74569 31.1487 4.76441 30.6926 4.27723 30.0914C3.81078 29.6319 3.28213 28.9167 3.01262 28.3155C2.95734 28.2394 2.57727 27.424 2.66019 27.31C2.72239 27.2236 2.95388 27.386 3.00917 27.4378L3.00571 27.4344ZM13.0949 37.6445C13.2988 37.6238 13.4888 37.5651 13.6097 37.4199C13.7134 37.2955 13.7341 37.1953 13.6996 37.0399C13.6097 36.6529 13.1951 36.8118 12.9394 37.0537C12.9256 37.0779 12.8081 36.9293 12.701 36.9293C12.6181 36.9155 12.4281 37.0191 12.3002 37.0917C12.1758 37.1642 12.2069 37.185 12.1171 37.1193C11.9685 37.0122 11.8441 36.9189 11.6748 36.8913C11.5297 36.8671 11.5193 36.8809 11.3639 36.8844C11.312 36.8844 11.2567 36.8636 11.198 36.8533C11.0011 36.8153 10.7627 36.7704 10.8179 37.0606C10.9181 37.5927 11.7854 37.6549 12.3279 37.6756C12.5939 37.686 12.822 37.6756 13.0915 37.648L13.0949 37.6445ZM13.9311 36.8015C14.6359 35.599 13.7341 34.3517 13.9103 33.1009C14.0762 31.94 14.3112 31.1833 14.287 30.4231C14.2179 28.7335 13.5199 27.5519 12.1931 25.0296C12.01 24.6426 11.3189 23.8064 10.8283 23.2398C10.3653 22.7077 9.57752 21.989 8.81392 22.1065C7.6737 22.2861 7.08631 24.2383 7.01375 25.3854C6.95501 27.0439 8.44075 28.9339 9.68808 30.1467C10.8076 31.2282 11.5781 34.0407 10.9285 35.5299C10.8663 36.0033 10.583 36.1208 10.8076 36.4456C10.9389 36.6391 11.0494 36.7289 11.2878 36.7358C11.3431 36.7358 11.3984 36.7289 11.4572 36.6978C11.6092 36.5458 11.9029 36.6114 12.1067 36.722C12.3555 36.8567 12.1931 36.8878 12.4488 36.7565C12.6561 36.6494 12.9256 36.5665 13.088 36.6805C13.3126 36.5216 13.4819 36.608 13.6892 36.7358C13.7099 36.7496 13.8862 36.8636 13.8965 36.8636C13.9034 36.8636 13.9103 36.8429 13.9345 36.798L13.9311 36.8015ZM14.5703 38.7986C14.7638 38.9091 15.1024 38.9955 15.2717 39.0577C15.5308 39.1199 15.79 39.0681 16.0457 39.0784C16.2841 39.0888 16.6089 39.151 16.7885 38.9471C16.9198 39.0473 17.1893 38.9921 17.3483 38.9713C18.029 38.8849 17.2066 37.9555 16.8404 38.4392C16.8162 38.4876 16.7505 38.5083 16.7125 38.4599C16.2426 38.0626 16.132 38.7398 15.8384 38.3148C15.5585 38.0833 14.8018 38.1628 14.5254 38.453C14.3768 38.6085 14.3941 38.7053 14.5634 38.7986H14.5703ZM7.41456 38.6638C7.1796 39.1026 8.82083 39.0957 9.05233 38.9506C9.232 39.1475 9.9645 38.999 10.2167 39.0162C11.2637 38.954 10.5173 38.028 10.0232 38.3425C9.89194 38.453 9.85393 38.4116 9.71918 38.3597C9.6017 38.3148 9.51187 38.2906 9.31492 38.3908C9.23891 38.4289 9.18017 38.4358 9.1698 38.4185C8.99013 38.0833 8.29564 38.2008 7.85337 38.3528C7.69788 38.4081 7.49403 38.5014 7.4111 38.6569L7.41456 38.6638ZM6.07394 37.9693C5.92536 37.952 5.82862 38.0246 5.70077 38.0419C5.46582 38.0695 5.51074 37.9209 5.15831 38.0488C5.04774 38.0902 4.9579 38.1352 4.96481 38.1352C4.96481 38.0004 4.76441 37.9693 4.66421 37.9693C4.52946 37.9693 4.39816 38.0142 4.2565 38.0522C3.80041 38.1801 3.21993 38.4254 3.30977 38.6604C3.3616 38.7951 3.47908 38.7571 3.59655 38.7536C3.87988 38.7709 4.58474 38.8193 4.84734 38.6984C4.86461 38.7087 4.87843 38.7156 4.8888 38.7225C5.00628 38.7882 5.24814 38.7917 5.37598 38.7502C5.42436 38.7364 5.47273 38.7122 5.5211 38.6776C5.7526 38.9333 6.69587 38.7087 6.32962 38.1663C6.26052 38.0661 6.19832 37.9831 6.07394 37.9693ZM13.0673 37.4268C12.9152 37.4165 13.437 36.8567 13.4992 37.147C13.513 37.2161 13.4992 37.261 13.4404 37.2955C13.3368 37.3577 13.1087 37.4268 13.0673 37.4268ZM12.7736 37.3957C12.6388 37.4925 12.3037 37.4649 12.4073 37.3612C12.4523 37.3163 12.625 37.2333 12.6837 37.2126C12.8738 37.147 12.8738 37.3301 12.777 37.3957H12.7736ZM11.7094 37.1677C11.8199 37.1988 11.8821 37.2403 11.9685 37.3128C12.0376 37.3716 12.1275 37.4268 11.9789 37.4441C11.8994 37.4545 11.7889 37.4476 11.7543 37.4476C11.4641 37.5443 11.433 37.2334 11.5297 37.1642C11.5712 37.1331 11.6645 37.1573 11.7128 37.1712L11.7094 37.1677ZM15.3132 38.5532C15.3754 38.3597 15.6932 38.4461 15.8073 38.5843C16.0249 38.7053 15.904 38.9299 15.6932 38.9126C15.6103 38.9057 15.5688 38.878 15.4686 38.8711C15.3684 38.8642 15.3201 38.8331 15.3063 38.7087C15.3028 38.6604 15.2993 38.5982 15.3132 38.5532ZM16.3221 38.878C16.2392 38.8884 16.1493 38.8884 16.2184 38.7813C16.3601 38.2976 16.6469 38.7364 16.5501 38.8331C16.5259 38.8573 16.3635 38.8746 16.3221 38.878ZM16.9302 38.7225C16.8646 38.536 17.1479 38.5394 17.2412 38.6154C17.6282 38.7536 16.9337 38.8469 16.9302 38.7225ZM8.85192 38.7916C8.77591 38.8158 8.12633 38.8262 8.35092 38.6776C9.07997 38.187 9.04541 38.7813 8.85192 38.7916ZM9.6017 38.7916C9.52569 38.8055 9.39439 38.8193 9.35984 38.8124C9.29074 38.802 9.22854 38.7709 9.24582 38.7467C9.26309 38.7225 9.48077 38.612 9.60516 38.5809C9.71918 38.5532 9.72609 38.6223 9.70191 38.7122C9.68463 38.7709 9.6639 38.7813 9.60861 38.7916H9.6017ZM9.98523 38.688C10.1649 38.3563 10.6279 38.7536 10.4517 38.7847C10.4137 38.7916 10.0163 38.7778 10.0751 38.7778C10.0025 38.7778 9.9334 38.7813 9.98523 38.688ZM6.20523 38.4496C6.17068 38.491 5.85971 38.4772 5.80443 38.4772C5.77679 38.4772 5.68695 38.5049 5.68695 38.4599C5.68695 38.1421 6.39182 38.2699 6.20523 38.4496ZM5.04774 38.4807C5.1203 38.3597 5.44854 38.2008 5.46582 38.3045C5.47273 38.339 5.44163 38.4392 5.42436 38.4669C5.37253 38.5463 5.1514 38.5256 5.06502 38.5118C5.03392 38.5049 5.03046 38.5118 5.04774 38.4807ZM4.20121 38.4496C4.30833 38.3425 4.59856 38.1041 4.72641 38.2699C4.80588 38.3736 4.79896 38.5567 4.53637 38.5221C4.47072 38.5221 4.32215 38.5187 4.23231 38.5152C4.15284 38.5152 4.13211 38.5221 4.20121 38.453V38.4496ZM24.7908 5.5491C24.9394 5.45926 25.2089 5.3867 25.3782 5.33142C27.0401 4.80968 28.8921 4.6542 30.4193 5.55946C33.2941 7.25597 33.377 11.0843 32.4406 13.928C30.561 19.6256 24.5869 20.4238 19.3454 20.099C19.3454 20.3754 19.4145 20.3063 19.3592 20.638C19.2797 21.1044 19.221 21.7091 19.031 22.1894C18.986 22.3069 18.955 22.4347 18.9239 22.5625C18.8478 22.9012 18.6578 23.2605 18.4436 23.6302C18.1983 24.0483 17.9253 24.4767 17.7525 24.881C17.4761 25.5306 17.2066 26.3978 16.906 27.0301C16.7022 27.4586 16.5778 27.735 16.3359 28.1462C15.6241 29.3382 15.4237 29.936 15.1715 30.1882C14.9676 30.3955 15.3028 30.3713 15.5343 30.1778C15.593 30.1329 15.7451 30.012 15.8971 29.8461C16.4396 29.2449 17.2688 28.046 17.4416 27.2443C17.68 26.6259 18.0186 25.8692 18.4712 24.7773C18.9308 23.6648 18.8997 23.7995 18.9031 24.995C18.91 26.9783 18.1568 28.0874 17.4899 29.8185C17.5556 30.627 17.2688 31.3319 16.8749 32.1127C16.7298 32.5619 16.4672 33.2149 16.4845 33.7505C16.4948 34.0787 16.6572 34.2688 16.7194 34.5867C16.8438 35.219 16.6296 35.796 16.481 36.4525C16.4465 37.0606 17.3656 37.4476 17.6593 37.9313C17.68 37.9762 17.6731 38.0073 17.6489 38.0246C17.4658 38.1732 17.3517 38.0211 17.2135 37.9797C17.1341 37.9555 17.0753 37.9935 16.8784 38.0937C16.6089 38.0557 16.4879 37.7966 16.2184 38.0591C15.7589 38.301 14.8916 37.5858 14.4597 38.0419C14.3215 38.1248 14.0071 38.7122 13.2573 38.5083C13.0811 38.4323 12.3037 38.1524 12.352 37.9278C13.4854 37.9278 14.2766 37.8311 14.5496 36.1139C14.4977 35.3744 14.5046 34.5106 14.3112 33.8127C14.1729 33.0249 14.5357 32.1576 14.6532 31.5772C14.7258 31.2144 14.8294 30.1122 14.7396 29.7355C14.3042 27.8075 12.701 24.2418 10.9803 22.6558C10.4068 22.1272 9.39439 21.5225 8.59969 21.6746C8.04341 21.7817 7.55622 22.2619 7.26944 22.7837C6.40218 23.8237 6.30889 25.0054 6.76498 26.5809C7.5113 30.0292 11.3224 30.1398 10.4033 35.7649C10.3342 35.8962 10.2306 36.7185 10.2098 36.7012C10.2582 36.8049 10.2927 36.8775 10.3066 36.9535C10.386 37.4096 10.0474 37.4165 10.3066 37.8449C10.3308 37.8829 10.3549 37.9278 10.3929 37.9693C10.4448 38.028 10.4551 38.073 10.4551 38.0626C10.4551 38.0522 10.4206 38.0522 10.3757 38.0315C10.2444 37.9762 10.044 37.9935 9.93686 38.0972C9.58443 37.8898 9.36329 38.0488 9.18708 38.0833C8.47531 37.7793 7.70825 38.1283 7.342 38.4047C7.19342 38.339 6.85136 38.6569 6.72697 38.3839C6.72697 38.1075 6.75807 37.8726 6.8099 37.6307C6.85136 37.4303 6.89973 37.2748 6.94465 37.0848L7.04485 36.6805C7.09322 36.4905 7.11741 36.4663 7.10359 36.2866C7.05867 35.7303 6.6786 35.3053 7.02066 34.7456C7.30745 34.3586 6.9101 33.5708 6.77534 33.1562C6.75461 32.8729 6.75461 32.5861 6.70624 32.32C6.68205 32.1853 6.6786 32.2026 6.59222 32.4202L6.51966 32.6103C6.51966 33.2702 6.21906 33.8991 5.97374 34.5003C6.10503 35.1222 5.89772 35.6543 5.83898 36.2383C5.80443 36.5872 5.85971 36.7496 5.92536 37.1055C5.953 37.261 5.9841 37.4165 6.01174 37.5927C5.99447 37.8553 5.92536 37.6964 5.6835 37.6964C5.40708 37.5754 5.25505 37.7171 5.01319 37.8449C4.90608 37.648 4.39816 37.7205 4.4258 37.8276C4.06301 37.8276 3.36851 38.1213 3.15429 38.4081C2.40105 38.4703 2.24211 38.3528 2.64292 37.7309C2.6982 37.2748 2.77421 36.8913 2.90551 36.4525C2.83986 35.9515 2.77421 35.4574 2.73966 34.9495L2.94352 34.3033C2.38723 33.6538 2.0659 32.7105 2.00716 31.8432C1.87931 31.3733 2.11772 31.4459 1.81712 31.0278C-0.515145 30.1053 1.41977 25.8726 1.62363 25.4407C2.35959 23.7097 4.00427 21.6642 5.29306 20.251C5.83553 19.5185 5.58675 18.6927 6.12922 17.9637C6.76152 17.2484 8.55478 21.5363 10.7592 18.634C11.198 17.6527 12.1482 15.5312 11.4191 14.6328C11.3708 14.3702 11.2498 14.0835 11.1151 13.8036C10.8525 13.2577 10.7074 13.1713 10.8283 12.5252C10.8836 12.2315 11.0114 11.9723 11.3017 11.5577C11.4813 11.302 11.7094 11.0774 11.8891 10.8148C12.0307 10.6144 12.1793 10.3069 12.3175 10.1307C12.5179 9.87156 12.6146 9.63315 12.822 9.42239C12.9325 9.30836 13.0811 9.20125 13.2919 9.10796C13.7134 8.9041 14.1695 8.73134 14.6429 8.70716C15.0851 8.68297 15.4686 8.90065 15.7831 9.11142C15.9731 9.23926 16.1424 9.3671 16.2806 9.4362C16.4188 9.50531 16.5018 9.49494 16.5674 9.49149C16.9337 9.47421 17.0995 10.5108 17.6662 10.9012C17.7456 10.9565 17.9391 11.0256 17.9011 11.1534C17.8735 11.2398 17.6973 11.2847 17.4139 11.3366C17.0304 11.4091 16.4085 11.3919 15.79 11.8065C15.4963 12.0172 15.2199 11.9067 15.0609 11.7961C14.8294 11.499 14.7465 11.1707 14.515 10.8805C14.4666 10.6766 13.5648 10.4279 13.2884 10.6939C13.1295 10.8321 13.5545 10.9116 13.6823 10.9634C14.9365 12.1278 14.1626 12.6945 16.7609 12.0034C17.1306 11.7961 17.6178 12.0242 17.9564 11.7477C18.1361 11.6026 18.2086 11.3573 18.3054 11.1534C19.0621 9.56059 21.0004 5.37634 20.2679 5.08264C20.223 5.05846 19.5009 5.62857 19.4283 5.70113C19.3177 5.75986 19.3281 5.68385 19.2936 5.61475C19.4871 4.93753 20.3267 2.5638 21.4185 3.84222C21.8055 4.56782 21.2872 7.56348 21.1697 7.95738C22.3134 5.89462 22.4689 2.49469 23.9201 0.697986C25.3747 -0.72556 28.0663 0.314457 29.5175 1.33029C29.6972 1.80711 29.0925 1.95568 29.3275 2.80912C25.62 1.78638 24.8046 1.1748 24.4142 5.12411C24.3382 5.90498 24.2345 6.46818 24.1965 7.25251C24.0894 9.6297 23.4847 12.8914 22.0577 14.581C21.5947 15.1995 20.534 15.7143 19.6253 16.1359C19.5492 16.1704 18.5507 16.7302 18.1222 16.9375C17.9875 17.0031 18.0117 16.9306 18.0048 16.9271C18.0635 16.82 18.1257 16.7094 18.1844 16.5954C20.2852 12.5804 21.8608 4.29486 21.0834 3.87678C20.4925 3.28939 19.6287 4.93061 19.4663 5.40398C19.3488 5.75641 20.2057 4.61274 20.3958 4.77168C21.4669 5.59747 17.3863 14.9611 15.9144 15.7005C15.8176 15.7489 15.7589 15.78 15.7831 15.6521C15.866 15.2513 15.638 15.0889 15.365 15.0958C15.0644 15.1027 14.6739 15.3619 14.5357 15.6279C14.2801 16.1151 14.3215 17.0238 14.591 17.5283C14.9573 18.2124 15.8729 18.8344 16.6641 18.4059C17.0511 18.1952 17.4312 17.7909 17.794 17.2484C17.8769 17.124 17.946 17.0826 18.0048 17.0688C18.2501 17.0204 18.1741 17.0791 18.4678 16.9444C18.7304 16.8234 19.0586 16.6818 19.3177 16.5885C19.6736 16.4572 21.4842 16.433 22.3963 16.5643C25.0776 16.9444 27.1438 16.3846 29.0476 14.2355C31.7807 11.1534 31.4904 6.15721 27.1507 6.06392C26.4804 6.04665 25.8481 6.20213 25.202 6.30579C25.0465 6.32997 24.8495 6.38871 24.6975 6.31961C24.3278 6.15376 24.5282 5.69767 24.7804 5.54564L24.7908 5.5491ZM25.0154 6.19522C25.6615 6.07083 26.4424 5.88771 27.1265 5.92226C28.1734 5.97409 29.0165 6.20904 29.5141 6.60294C30.5886 7.36654 31.0689 8.62769 31.0378 10.0063C30.9618 13.1264 28.2667 16.8649 23.8717 16.8856C22.3652 16.8753 19.7186 16.3086 18.5852 17.1655C18.1983 17.4592 18.067 17.898 17.984 18.3576C17.9253 18.6927 17.946 18.9242 18.029 19.0901C18.2259 19.4943 18.7753 19.5116 19.3454 19.6636C21.4945 19.8744 23.6644 19.9124 25.7341 19.4148C27.2371 19.052 28.7263 18.4025 29.9563 17.3072C30.3951 16.9167 30.8201 16.4917 31.1795 15.9804C31.8325 15.1546 32.3784 13.7759 32.6479 12.3248C32.7551 11.7408 32.8172 11.1465 32.8207 10.573C32.8518 7.29743 30.599 4.70603 27.3407 5.04809C26.7603 5.10683 25.855 5.33833 25.1709 5.54219C25.1156 5.55946 25.0603 5.56983 25.0085 5.59056C24.8668 5.65275 24.7839 5.70804 24.7355 5.77023C24.5766 5.99482 24.6664 6.26087 25.0188 6.19177L25.0154 6.19522ZM5.5522 15.7765C5.48655 15.6625 8.48567 9.74026 10.9665 14.467C11.3846 15.5934 11.5954 15.8836 10.7246 17.1379C10.3273 17.4246 10.8594 19.1212 8.79664 19.0693C8.28872 19.0555 5.66968 16.7647 5.5522 15.78V15.7765Z" fill="white"/>
<path id="Vector_2" d="M40.8298 38.809L40.1941 33.5191C40.1733 33.3118 40.1526 33.1079 40.1353 32.8971C40.1146 32.6898 40.0939 32.486 40.0766 32.2856C40.0248 31.7742 39.9937 31.3699 39.9764 31.0728C39.9038 31.4736 39.8209 31.8779 39.7276 32.2856C39.6481 32.6207 39.5169 33.0803 39.3234 33.6746L37.6545 38.809H34.5448L32.8794 33.6746C32.7066 33.1874 32.5719 32.7244 32.4717 32.2856C32.3438 31.7466 32.2644 31.3458 32.2229 31.0728C32.1711 31.6567 32.1331 32.0679 32.1227 32.3028C32.0951 32.5654 32.0536 32.9697 32.0018 33.5156L31.366 38.8055H26.2419L28.7262 25.4546H34.1198L35.1529 28.7544C35.1633 28.8165 35.2186 28.9686 35.3015 29.2173C35.7472 30.6754 36.0098 31.8226 36.1066 32.6553H36.1929C36.2724 32.0852 36.3899 31.4805 36.5488 30.8482C36.6767 30.2954 36.884 29.5801 37.1846 28.6956L38.2661 25.4512H43.6458L45.9505 38.8021H40.8264L40.8333 38.809H40.8298Z" fill="white"/>
<path id="Vector_3" d="M49.0741 38.8089L54.2569 25.458H60.072L65.1546 38.8089H59.533L59.0631 37.1297H55.1207L54.6715 38.8089H49.0671H49.0741ZM56.0052 33.9578H58.182L57.7328 32.4444C57.5082 31.6601 57.3596 31.0693 57.2871 30.6616C57.2145 30.3057 57.1662 29.9187 57.1454 29.5006H57.0383C57.0176 29.9118 56.9692 30.2988 56.8966 30.6616C56.8034 31.1556 56.6513 31.7465 56.4475 32.4444L55.9983 33.9578H56.0017H56.0052Z" fill="white"/>
<path id="Vector_4" d="M82.8037 38.809L82.168 33.5191C82.1472 33.3118 82.1265 33.1079 82.1092 32.8971C82.0885 32.6898 82.0678 32.486 82.0505 32.2856C81.9986 31.7742 81.9675 31.3699 81.9503 31.0728C81.8777 31.4736 81.7948 31.8779 81.7015 32.2856C81.622 32.6207 81.4907 33.0803 81.2972 33.6746L79.6284 38.809H76.5187L74.8533 33.6746C74.6805 33.1874 74.5458 32.7244 74.4456 32.2856C74.3177 31.7466 74.2383 31.3458 74.1968 31.0728C74.145 31.6567 74.107 32.0679 74.0966 32.3028C74.0689 32.5654 74.0275 32.9697 73.9757 33.5156L73.3399 38.8055H68.2158L70.7001 25.4546H76.0937L77.1268 28.7544C77.1372 28.8165 77.1925 28.9686 77.2754 29.2173C77.7211 30.6754 77.9837 31.8226 78.0804 32.6553H78.1668C78.2463 32.0852 78.3672 31.4805 78.5227 30.8482C78.6505 30.2954 78.8579 29.5801 79.1585 28.6956L80.2399 25.4512H85.6197L87.9243 38.8021H82.8003L82.8072 38.809H82.8037Z" fill="white"/>
<path id="Vector_5" d="M105.273 38.809L104.637 33.5191C104.616 33.3118 104.596 33.1079 104.578 32.8971C104.558 32.6898 104.537 32.486 104.52 32.2856C104.468 31.7742 104.437 31.3699 104.42 31.0728C104.347 31.4736 104.264 31.8779 104.171 32.2856C104.091 32.6207 103.96 33.0803 103.766 33.6746L102.098 38.809H98.9879L97.3225 33.6746C97.1498 33.1874 97.015 32.7244 96.9148 32.2856C96.787 31.7466 96.7075 31.3458 96.666 31.0728C96.6142 31.6567 96.5762 32.0679 96.5658 32.3028C96.5382 32.5654 96.4967 32.9697 96.4449 33.5156L95.8091 38.8055H90.6851L93.1694 25.4546H98.5629L99.596 28.7544C99.6064 28.8165 99.6617 28.9686 99.7446 29.2173C100.19 30.6754 100.453 31.8226 100.55 32.6553H100.64C100.719 32.0852 100.84 31.4805 100.995 30.8482C101.123 30.2954 101.331 29.5801 101.631 28.6956L102.713 25.4512H108.092L110.397 38.8021H105.273L105.28 38.809H105.273Z" fill="white"/>
<path id="Vector_6" d="M113.928 32.6967V25.4546H119.156V32.7347C119.156 33.5916 119.263 34.1755 119.484 34.4761C119.705 34.8009 120.079 34.9599 120.607 34.9599C121.136 34.9599 121.502 34.7975 121.72 34.4761C121.951 34.1375 122.069 33.5571 122.069 32.7347V25.4546H127.296V32.6967C127.296 33.6676 127.231 34.4485 127.096 35.029C126.951 35.6716 126.73 36.1934 126.44 36.5838C125.852 37.4234 125.058 38.0592 124.062 38.4911C123.029 38.9403 121.875 39.1649 120.604 39.1649C119.332 39.1649 118.171 38.9403 117.135 38.4911C116.14 38.0592 115.352 37.4234 114.758 36.5838C114.485 36.1934 114.274 35.682 114.122 35.0497C113.99 34.4658 113.921 33.6814 113.921 32.6967H113.925H113.928Z" fill="white"/>
<path id="Vector_7" d="M133.982 38.809V29.822H131.07V25.4546H142.112V29.822H139.203V38.809H133.982Z" fill="white"/>
<path id="Vector_8" d="M40.4187 45.9162C40.36 45.9957 40.2874 46.0752 40.2218 46.1581C40.0801 46.3309 39.9142 46.5347 39.7242 46.7593C39.3614 46.5313 38.9399 46.2929 38.6324 46.0026L38.0001 46.7559C37.5958 46.4864 37.2088 46.2099 36.8218 45.9128C36.9048 45.7366 37.0672 45.512 37.3056 45.2356L37.7478 44.7173C38.0692 45.125 38.4734 45.3669 38.7602 45.5638L39.4651 44.7173C39.6171 44.9142 39.8451 45.1181 40.1561 45.3323L40.6295 45.6571C40.5569 45.74 40.4844 45.8333 40.4187 45.9197M35.7024 50.1212C35.768 49.5131 35.8924 48.8221 36.2137 48.2934C36.4314 47.9341 36.58 47.8857 36.5316 48.366C36.5109 48.594 36.4867 48.8221 36.4625 49.0501C36.4521 49.33 36.4556 49.6617 36.618 49.8966C36.7838 50.1351 37.1881 50.3424 37.4818 50.3424H40.8437L40.8091 50.1489C40.6986 49.7792 40.5984 49.444 40.3738 49.1158C40.4567 48.8497 40.9024 47.6162 41.0406 47.4987C41.1339 47.5782 41.248 47.8097 41.3067 47.9237C41.8872 49.0985 41.8284 50.1385 41.4898 51.3824C41.3723 51.8143 41.241 52.2047 41.0959 52.5502H37.1259C36.8495 52.5502 36.6249 52.5122 36.4176 52.4051C35.6021 51.9801 35.6229 50.9159 35.7058 50.1212H35.7024ZM25.1536 49.6271C25.1674 49.7861 25.2158 50.2663 25.3644 50.332C25.4369 50.3666 25.9137 50.3631 26.0312 50.3631C26.2213 50.3631 27.6621 50.37 27.8141 50.3251C28.0698 50.2491 28.2771 49.3991 28.3358 49.1538L29.0303 48.7461C28.9923 49.0259 28.9716 49.8828 28.6675 50.4598C28.7539 50.4598 28.8541 50.4598 28.9543 50.4564C29.5452 50.4322 29.7905 50.643 30.0773 49.8655L30.1809 49.1952L30.9722 48.6977L30.8236 49.2229C30.7234 49.5788 30.7303 50.0694 30.6336 50.4287C31.0551 50.4598 31.2279 50.4287 31.6839 50.4495L31.4939 49.406L31.988 48.404C32.1677 48.5284 32.2644 48.829 32.3232 49.0397C32.4648 49.5615 32.451 50.1109 32.451 50.6464L32.4061 50.9712C32.3473 51.2511 32.2886 51.5793 32.1988 51.8868C32.1746 51.9698 32.1504 52.0527 32.1193 52.1322C31.9396 52.6263 31.8774 52.5883 31.4559 52.5917C30.8098 52.5952 30.1464 52.6055 29.4657 52.609C28.5051 52.609 25.6511 52.7126 24.8668 52.5122C24.7424 52.4811 24.6249 52.4189 24.5144 52.3015C24.2691 52.0389 24.1447 51.4826 24.0998 51.1474C23.9719 50.2387 23.8821 49.3023 23.8821 48.3833C23.8821 48.2623 23.8613 47.9479 23.8475 47.4469L23.8233 46.6971C23.9132 46.5278 24.0687 46.286 24.2863 45.9715C24.5351 45.6191 24.7044 45.4014 24.7804 45.3254C24.8945 45.4152 24.9048 45.5915 24.929 45.7262C24.9774 47.0254 25.0258 48.328 25.1467 49.6202L25.1536 49.6271ZM20.3716 46.8181L20.6065 46.552C20.9037 46.2099 21.1006 46.0026 21.3252 45.7089L20.8588 45.3876C20.5443 45.1734 20.3059 44.973 20.1643 44.7726L19.722 45.2909C19.4871 45.5638 19.3247 45.7953 19.2383 45.9715C19.3558 46.0925 19.5078 46.2134 19.646 46.3101L20.3681 46.8146L20.3716 46.8181ZM17.3932 46.3447L16.7851 47.0737C16.4154 46.8422 16.018 46.6176 15.6932 46.3205L15.054 47.0806C14.6463 46.825 14.2662 46.5278 13.8827 46.2341C13.9656 46.0579 14.1246 45.8299 14.363 45.5534L14.8087 45.0352C14.9227 45.1976 15.1369 45.3876 15.4479 45.6122L15.8245 45.8851L16.5259 45.0386C16.6745 45.2356 16.906 45.4429 17.2204 45.6571L17.6869 45.975C17.5798 46.1063 17.5245 46.1892 17.3932 46.3447ZM7.22452 48.5353C7.24871 48.9015 7.27635 49.2643 7.3109 49.6306C7.33163 49.8483 7.35927 50.0072 7.38346 50.1005C7.42147 50.2353 7.4422 50.3424 7.58386 50.3424C8.25072 50.3424 9.59825 50.3424 10.2651 50.3424L10.3999 49.8552C10.4482 49.679 10.545 49.4751 10.6832 49.2471C11.0011 48.7219 11.6299 48.1621 12.276 48.1725C12.3002 48.1725 12.3313 48.1794 12.3659 48.1932C12.5974 48.2761 12.5905 48.3764 12.5905 48.6044C12.5905 48.829 12.6112 49.0639 12.6734 49.2782C12.7563 49.5477 12.8911 49.8241 13.0465 50.0418C13.164 50.2076 13.3264 50.3458 13.7169 50.3458H15.631C15.5516 49.9727 15.4756 49.7066 15.3788 49.3438C15.3615 49.2747 15.3477 49.2056 15.3477 49.1365C15.6414 48.7426 15.8936 48.3176 16.177 47.9168C16.3532 48.3211 16.4776 48.7599 16.5018 49.1987C16.5259 49.596 16.4292 49.9381 16.4292 50.3113C16.5018 50.3769 16.9302 50.3458 17.0511 50.3458C17.6523 50.3458 17.3621 50.3458 17.9633 50.3458C18.5645 50.3458 19.0552 50.2871 19.373 50.1765C19.6287 50.0867 19.8879 50.0107 20.1228 49.8759C20.2368 49.8103 20.3267 49.7515 20.3059 49.7377C20.2714 49.7239 20.2299 49.7066 20.1781 49.6859C19.9881 49.6168 19.9086 49.5269 19.4767 49.4095C19.0206 49.2851 18.219 49.2574 17.794 49.4958C17.7284 49.5338 17.6903 49.5788 17.6489 49.5028C17.5901 49.3991 17.8286 48.8048 17.8907 48.6977C18.0704 48.3833 18.2605 48.0654 18.5127 47.8512C18.7856 47.6162 19.1277 47.5056 19.6045 47.6473C20.3025 47.8581 20.6376 48.3833 21.5809 48.5318C21.8297 48.5698 22.0957 48.5768 22.3998 48.5387L22.6278 48.5111C22.5276 49.0121 22.4309 49.5131 22.3341 50.0141C22.1787 50.0141 21.9713 50.0556 21.7088 50.1316C21.6051 50.1627 21.1386 50.3942 20.8346 50.5566C20.7102 50.6222 20.6135 50.6741 20.5858 50.6948C20.2679 50.9194 20.0364 51.1751 19.8291 51.4515C19.7255 51.5897 19.6287 51.7348 19.532 51.8834C19.3212 52.2047 19.2521 52.4224 18.8444 52.5122C18.371 52.6159 17.9564 52.5537 17.4174 52.5537H16.1666C16.0146 52.5364 15.9005 52.4984 15.8073 52.4224C15.714 52.3429 15.6691 52.2427 15.6138 52.1356L15.4099 51.7417L15.0264 52.5537H14.0658C13.7687 52.5537 13.6236 52.5675 13.4888 52.5364C13.2539 52.4811 13.0673 52.3395 12.9671 52.1218C12.9256 52.4189 12.8323 52.6815 12.6907 52.9096C12.5801 53.0858 12.5732 53.1653 12.4039 53.0685C12.2035 52.9545 11.9685 52.7679 11.8061 52.6366C11.35 52.2669 10.894 51.9007 10.4413 51.5275C10.3722 51.5517 10.3204 51.6208 10.2893 51.7279C10.1891 52.0907 10.1165 52.3015 10.082 52.3568C10.0371 52.4259 9.9956 52.5295 9.91267 52.5502H7.39037C7.28326 52.5502 7.14851 52.5572 7.01375 52.5502C6.75461 52.5433 6.59913 52.5122 6.49893 52.4397C6.35381 52.3326 6.33308 52.1287 6.29161 51.7763C6.17068 50.7777 6.09121 49.3611 6.04975 48.3867C6.04284 48.2658 6.02902 47.9514 6.0152 47.4504L5.99101 46.7006C6.08085 46.5313 6.23633 46.2894 6.45401 45.975C6.70278 45.6225 6.87209 45.4049 6.9481 45.3289C7.06213 45.4187 7.07249 45.5949 7.09668 45.7297C7.13123 46.6626 7.16578 47.6024 7.22798 48.5318L7.22452 48.5353ZM3.00571 48.2312C3.29249 47.9341 3.65184 47.4815 3.91443 47.1256C3.51708 46.8595 3.04372 46.5762 2.75348 46.1996L2.31121 46.7179C2.07626 46.9943 1.91041 47.2189 1.82749 47.3951C1.8724 47.4469 1.96915 47.5298 2.12463 47.6438C2.41487 47.8581 2.6982 48.0481 3.00917 48.2381L3.00571 48.2312ZM11.2982 49.6617C11.198 49.7412 11.1324 49.8517 11.1185 49.9174C11.1116 49.9519 11.1807 50.0107 11.2498 50.0659C11.4226 50.2042 12.2795 50.9747 12.2829 50.9332C12.2899 50.8641 12.2691 50.7052 12.238 50.522C12.2 50.3009 12.124 49.869 11.934 49.6513C11.8545 49.558 11.7543 49.52 11.6506 49.5235C11.5263 49.5235 11.3984 49.5822 11.2948 49.6651L11.2982 49.6617ZM1.21591 50.9608L1.50615 50.3251C1.51306 50.256 1.5407 50.1523 1.45087 50.1316L1.31611 50.1869C0.811654 50.7743 0.473043 51.6312 0.365932 52.3948C0.33829 52.5986 0.321014 52.8094 0.314104 53.0236C0.296828 53.4659 0.33138 53.7457 0.566334 54.1362C0.946407 54.7685 1.60981 54.9274 2.30085 54.9274C2.69474 54.9274 3.2994 54.8272 3.65184 54.6614C3.98354 54.5059 4.25995 54.3055 4.47763 54.0671L4.6262 53.7734L4.79551 53.3484C5.09266 52.6124 5.15831 51.9352 5.09957 51.1543C5.07193 50.8192 5.02355 50.5048 4.95099 50.1972C4.83697 49.717 4.73332 49.1365 4.31178 48.8359C4.24959 48.791 4.1943 48.7564 4.17012 48.7426C4.15975 48.7495 3.68293 49.9899 3.56891 50.2111C3.69675 50.5117 4.44999 52.2669 4.35324 52.4742C4.2945 52.5986 4.10792 52.7057 3.8246 52.799C3.45489 52.9199 2.85023 52.8923 2.45979 52.8923C1.9346 52.8923 1.46123 52.7817 1.20209 52.2669C1.0086 51.8799 1.04315 51.3513 1.21937 50.9643L1.21591 50.9608Z" fill="white"/>
<path id="Vector_9" d="M55.8979 49.5133C55.8979 49.5133 56.3091 49.8899 56.3298 49.9107C56.5337 50.0869 56.7306 50.2458 56.8723 50.3702C56.8827 50.3771 56.9345 50.4151 56.9656 50.4428C57.0105 50.4808 57.0623 50.5257 57.0623 50.5222C57.0623 50.505 57.0623 50.4911 57.0623 50.4739C57.0623 50.4497 57.0623 50.422 57.0554 50.3806C57.0381 50.2424 57.014 50.0972 56.9829 49.9556C56.9449 49.7863 56.8896 49.6204 56.8239 49.4649C56.779 49.3544 56.7168 49.2645 56.6443 49.2023C56.6028 49.1643 56.5544 49.1402 56.506 49.1229C56.316 49.0641 56.1121 49.2127 55.9878 49.3751C55.9601 49.4097 55.9394 49.4442 55.9152 49.4822C55.9083 49.4926 55.9014 49.5064 55.8945 49.5168M52.3563 47.0394V47.416C52.4047 48.1381 52.4427 48.8637 52.5118 49.5859C52.5256 49.7172 52.5671 50.2044 52.688 50.2735C52.7571 50.3115 52.961 50.2976 53.0543 50.2976H54.8994L55.1516 49.617C55.2276 49.4097 55.3416 49.1782 55.4971 48.9294C55.8115 48.4249 56.4991 47.7097 57.1349 47.7166C57.2489 47.7166 57.3318 47.7995 57.3698 47.9688L57.4251 48.2107L57.8328 49.8588C57.8605 50.0972 57.9019 50.3253 57.8294 50.5568C57.6359 51.1787 57.4355 51.7938 57.1142 52.3639C56.8896 52.2602 56.6408 52.1255 56.3713 51.9561C55.9187 51.6728 55.5697 51.4482 55.3209 51.2789L55.086 51.9734C55.0341 52.1185 54.9408 52.4261 54.8095 52.4917C54.0459 52.4986 53.2892 52.5021 52.5256 52.5055C52.46 52.5055 52.2389 52.5228 52.0143 52.5124C51.4994 52.4848 51.4614 52.471 51.4269 51.8318C51.4234 51.7454 51.4165 51.659 51.4131 51.5657C51.3785 50.8298 51.3474 50.1042 51.3025 49.3682C51.2472 48.4664 51.2161 47.5611 51.1885 46.6593C51.2783 46.49 51.4338 46.2481 51.6515 45.9337C51.9003 45.5778 52.0696 45.3636 52.1456 45.2876C52.2596 45.3774 52.27 45.5536 52.2941 45.6884C52.3114 46.1376 52.3563 45.9717 52.3563 47.0359V47.0394Z" fill="white"/>
<path id="Vector_10" fill-rule="evenodd" clip-rule="evenodd" d="M48.0996 49.513C48.0996 49.513 48.5107 49.8896 48.5315 49.9104C48.7353 50.0866 48.9323 50.2455 49.0739 50.3699C49.0843 50.3768 49.1361 50.4148 49.1672 50.4425C49.2121 50.4805 49.264 50.5254 49.264 50.522C49.264 50.5047 49.264 50.4909 49.264 50.4736C49.264 50.4494 49.264 50.4217 49.257 50.3803C49.2398 50.2421 49.2156 50.097 49.1845 49.9553C49.1465 49.786 49.0912 49.6201 49.0256 49.4647C48.9806 49.3541 48.9184 49.2643 48.8459 49.2021C48.8044 49.1641 48.756 49.1399 48.7077 49.1226C48.5176 49.0639 48.3138 49.2124 48.1894 49.3748C48.1617 49.4094 48.141 49.4439 48.1168 49.4819C48.1099 49.4923 48.103 49.5061 48.0961 49.5165M44.6685 50.4045C44.4958 50.4218 44.3437 50.4287 44.209 50.4045C43.7598 50.325 43.5352 50.0106 43.5871 49.8205C43.6078 49.7445 43.708 49.6547 43.7702 49.6063C43.8807 49.5234 43.9879 49.4336 44.1364 49.4716C44.3748 49.5338 44.52 49.8378 44.596 50.052C44.6374 50.1695 44.6547 50.287 44.6651 50.4045H44.6685ZM46.3961 52.5018H47.0112C47.1425 52.4292 47.2358 52.1217 47.2876 51.9766L47.5225 51.2821C47.7713 51.4514 48.1203 51.676 48.5729 51.9593C48.8424 52.1286 49.0912 52.2634 49.3158 52.367C49.6371 51.7935 49.8375 51.1819 50.031 50.56C50.1036 50.3285 50.0621 50.1004 50.0345 49.862L49.6268 48.2139L49.5715 47.972C49.5335 47.8027 49.4471 47.7198 49.3365 47.7198C48.7008 47.7129 48.0132 48.4246 47.6988 48.9326C47.5433 49.1813 47.4292 49.4128 47.3532 49.6201L47.101 50.3008H46.3961H45.5185C45.5185 50.1142 45.4667 49.8171 45.3734 49.4128C45.3354 49.2504 45.3008 49.0397 45.2179 48.8013C45.1384 48.5801 44.9795 48.2484 44.862 48.0653C44.7653 47.9167 44.6374 47.8062 44.4128 47.8062C43.5871 47.8062 43.1241 49.4612 42.9789 50.0693C42.8545 50.598 42.6541 51.5931 43.0411 52.0388C43.4972 52.5674 43.9222 52.5018 44.52 52.3394C44.4647 52.6054 44.4267 52.7782 44.3368 52.9441C44.0535 53.4727 43.6389 53.7146 43.0964 53.915C42.7232 54.0532 42.319 54.1361 41.9597 54.1396C41.4275 54.1465 40.9231 54.0186 41.4794 54.4505C41.5761 54.5265 41.6971 54.6336 41.8733 54.7339C42.9306 55.3247 44.361 54.9377 44.8724 53.8079C44.9864 53.5522 45.0762 53.2827 45.1834 52.9337C45.2214 52.8058 45.2594 52.6676 45.2974 52.5191C45.6671 52.5191 46.0368 52.5191 46.4065 52.5156L46.3961 52.5018Z" fill="white"/>
<path id="Vector_11" d="M137.779 48.0066H139.248L139.165 48.5007C139.728 48.093 140.312 47.8857 140.92 47.8857C141.438 47.8857 141.863 48.017 142.195 48.283C142.527 48.5491 142.693 48.8808 142.693 49.2816C142.693 49.4716 142.662 49.7515 142.599 50.1281L142.14 52.837H140.671L141.117 50.1938C141.159 49.9208 141.183 49.7204 141.183 49.5856C141.183 49.3922 141.114 49.2401 140.975 49.1365C140.837 49.0328 140.64 48.981 140.385 48.981C140.129 48.981 139.891 49.0501 139.645 49.1883C139.396 49.3265 139.206 49.5165 139.075 49.7584C138.94 50.0037 138.819 50.4598 138.709 51.1301L138.426 52.837H136.957L137.776 48.0066H137.779ZM132.731 49.0155C132.127 49.0155 131.667 49.1883 131.346 49.5338C131.024 49.8793 130.866 50.256 130.866 50.6602C130.866 51.0196 130.997 51.3098 131.259 51.5309C131.522 51.7486 131.871 51.8626 132.306 51.8626C132.925 51.8626 133.402 51.6933 133.726 51.3582C134.051 51.023 134.214 50.6429 134.214 50.211C134.214 49.8552 134.075 49.5684 133.799 49.3472C133.526 49.1261 133.167 49.0155 132.731 49.0155ZM132.838 47.8891C133.371 47.8891 133.854 47.9893 134.286 48.1863C134.722 48.3832 135.06 48.6631 135.302 49.0259C135.544 49.3887 135.665 49.7964 135.665 50.249C135.665 50.9988 135.333 51.638 134.67 52.1667C134.006 52.6919 133.184 52.9579 132.206 52.9579C131.356 52.9579 130.676 52.7506 130.171 52.336C129.663 51.9214 129.411 51.3789 129.411 50.7086C129.411 49.9001 129.756 49.2263 130.441 48.6942C131.128 48.1586 131.926 47.8926 132.838 47.8926V47.8891ZM127.099 48.0066H128.568L127.749 52.837H126.28L127.099 48.0066ZM128.101 46.0337C128.35 46.0337 128.564 46.1063 128.741 46.2479C128.92 46.393 129.007 46.5623 129.007 46.7662C129.007 46.9701 128.917 47.1394 128.741 47.2845C128.561 47.4296 128.35 47.4987 128.101 47.4987C127.853 47.4987 127.638 47.4261 127.462 47.2845C127.283 47.1394 127.196 46.9701 127.196 46.7662C127.196 46.5623 127.286 46.393 127.462 46.2479C127.642 46.1028 127.853 46.0337 128.101 46.0337ZM124.021 46.2065H125.489L125.185 48.0066H126.115L125.938 49.0328H125.009L124.366 52.8335H122.898L123.541 49.0328H122.818L122.988 48.0066H123.713L124.017 46.2065H124.021ZM121.706 49.0121L120.462 49.5545C120.109 49.1952 119.636 49.0155 119.042 49.0155C118.641 49.0155 118.285 49.0846 117.978 49.2194C117.67 49.3576 117.425 49.5545 117.242 49.8137C117.059 50.0728 116.965 50.3458 116.965 50.636C116.965 51.0057 117.11 51.3029 117.401 51.5275C117.691 51.7486 118.088 51.8626 118.593 51.8626C119.294 51.8626 119.833 51.6726 120.206 51.2925L121.36 51.949C121.035 52.2634 120.628 52.5088 120.144 52.685C119.657 52.8612 119.118 52.951 118.52 52.951C117.587 52.951 116.855 52.7437 116.316 52.3325C115.78 51.9179 115.511 51.372 115.511 50.6948C115.511 49.9173 115.842 49.2574 116.506 48.708C117.169 48.1621 118.023 47.8857 119.069 47.8857C120.244 47.8857 121.125 48.2588 121.702 49.0086L121.706 49.0121ZM109.765 48.0343H111.233L110.815 50.5013C110.77 50.7708 110.749 50.9781 110.749 51.1128C110.749 51.3236 110.843 51.5033 111.022 51.6484C111.205 51.7935 111.447 51.8661 111.741 51.8661C112.121 51.8661 112.411 51.7728 112.615 51.5862C112.819 51.4031 112.968 51.023 113.064 50.4529L113.475 48.0343H114.944L114.505 50.6326C114.405 51.2165 114.239 51.6691 114.004 51.9905C113.769 52.3118 113.458 52.5571 113.071 52.7299C112.684 52.8992 112.228 52.9856 111.703 52.9856C110.964 52.9856 110.376 52.8128 109.941 52.4742C109.505 52.1321 109.288 51.6933 109.288 51.1509C109.288 50.8192 109.336 50.3942 109.433 49.8759L109.768 48.0412L109.765 48.0343ZM105.556 48.0066H106.866L106.762 48.6631C107.156 48.1483 107.626 47.8891 108.175 47.8891C108.307 47.8891 108.445 47.9168 108.59 47.9755L108.058 49.057C107.944 49.0259 107.861 49.0086 107.809 49.0086C107.522 49.0086 107.263 49.1434 107.035 49.4094C106.807 49.6755 106.631 50.218 106.499 51.0299L106.206 52.8404H104.737L105.556 48.0101V48.0066ZM102.723 46.2065H104.191L103.887 48.0066H104.817L104.641 49.0328H103.711L103.068 52.8335H101.6L102.243 49.0328H101.52L101.69 48.0066H102.415L102.719 46.2065H102.723ZM100.487 48.6873L99.7929 49.5891C99.6132 49.3749 99.4232 49.2159 99.2262 49.1123C99.0293 49.0121 98.8461 48.9603 98.6734 48.9603C98.5421 48.9603 98.4281 48.9879 98.3382 49.0466C98.2449 49.1054 98.2 49.171 98.2 49.247C98.2 49.3231 98.238 49.3887 98.3106 49.4578C98.3797 49.5269 98.5905 49.6651 98.9394 49.869C99.4992 50.1938 99.8654 50.4702 100.045 50.7017C100.221 50.9332 100.311 51.1854 100.311 51.4549C100.311 51.8108 100.128 52.1494 99.7652 52.4673C99.399 52.7852 98.8703 52.9441 98.1758 52.9441C97.775 52.9441 97.4122 52.8785 97.084 52.7472C96.7557 52.6159 96.3895 52.3775 95.9852 52.0319L96.894 51.1785C97.3051 51.6139 97.7543 51.8315 98.2415 51.8315C98.4384 51.8315 98.5905 51.7935 98.7079 51.721C98.822 51.645 98.8807 51.5551 98.8807 51.4515C98.8807 51.3685 98.8358 51.2856 98.7494 51.1992C98.6596 51.1128 98.4211 50.9574 98.0307 50.7328C97.5781 50.4736 97.2637 50.2525 97.0909 50.0659C96.849 49.8068 96.7281 49.5338 96.7281 49.2436C96.7281 48.8393 96.9181 48.5111 97.2982 48.2588C97.6783 48.0066 98.124 47.8788 98.6423 47.8788C99.0051 47.8788 99.3506 47.9479 99.6754 48.0861C100.004 48.2243 100.273 48.4212 100.487 48.6769V48.6873ZM90.2047 48.0066H91.6731L91.5902 48.5007C92.1534 48.093 92.7373 47.8857 93.3454 47.8857C93.8637 47.8857 94.2887 48.017 94.6204 48.283C94.9521 48.5491 95.118 48.8808 95.118 49.2816C95.118 49.4716 95.0869 49.755 95.0247 50.1281L94.5651 52.837H93.0967L93.5424 50.1938C93.5873 49.9243 93.608 49.7204 93.608 49.5856C93.608 49.3922 93.5389 49.2401 93.4007 49.1365C93.2625 49.0328 93.0656 48.981 92.8099 48.981C92.5542 48.981 92.3158 49.0501 92.0705 49.1883C91.8217 49.3265 91.6317 49.5165 91.5004 49.7584C91.3691 50.0037 91.2447 50.4598 91.1341 51.1301L90.8508 52.837H89.3823L90.2012 48.0066H90.2047ZM85.8166 49.0155C85.2119 49.0155 84.7524 49.1883 84.431 49.5338C84.1097 49.8793 83.9507 50.256 83.9507 50.6602C83.9507 51.0196 84.082 51.3098 84.3446 51.5309C84.6072 51.7486 84.9562 51.8626 85.3916 51.8626C86.01 51.8626 86.4834 51.6933 86.8117 51.3582C87.1364 51.023 87.2988 50.6429 87.2988 50.211C87.2988 49.8552 87.1606 49.5684 86.8842 49.3472C86.6078 49.1261 86.2519 49.0155 85.8166 49.0155ZM85.9237 47.8891C86.4558 47.8891 86.9395 47.9893 87.3714 48.1863C87.8068 48.3832 88.1454 48.6631 88.3872 49.0259C88.6291 49.3887 88.75 49.7964 88.75 50.249C88.75 50.9988 88.4183 51.638 87.7549 52.1667C87.0915 52.6919 86.2692 52.9579 85.2914 52.9579C84.4414 52.9579 83.7607 52.7506 83.2562 52.336C82.7518 51.9214 82.4961 51.3789 82.4961 50.7086C82.4961 49.9001 82.8416 49.2263 83.5258 48.6942C84.2133 48.1586 85.0115 47.8926 85.9237 47.8926V47.8891ZM81.7809 47.1532L80.6752 47.9824C80.4368 47.7613 80.1431 47.5885 79.801 47.4711C79.4555 47.3501 79.0824 47.2914 78.6781 47.2914C78.1114 47.2914 77.569 47.4089 77.0541 47.6404C76.5359 47.8753 76.1316 48.1828 75.8448 48.5664C75.558 48.9499 75.4129 49.3611 75.4129 49.793C75.4129 50.3838 75.6652 50.8744 76.1731 51.2683C76.6775 51.6588 77.3271 51.8557 78.1218 51.8557C78.9683 51.8557 79.7043 51.6588 80.3228 51.2649L81.2211 52.2151C80.302 52.7402 79.2344 53.0028 78.0182 53.0028C77.1682 53.0028 76.4426 52.8716 75.8448 52.6124C75.2505 52.3533 74.7703 51.9697 74.4075 51.4653C74.0447 50.9608 73.865 50.4149 73.865 49.8241C73.865 49.1952 74.0792 48.5905 74.5077 48.0101C74.9361 47.4331 75.5131 46.977 76.2456 46.6418C76.9747 46.3101 77.7728 46.1443 78.6366 46.1443C79.8494 46.1443 80.8963 46.4794 81.7809 47.1532Z" fill="white"/>
<path id="Vector_12" fill-rule="evenodd" clip-rule="evenodd" d="M30.668 21.4983L120.524 11.7788L141.449 22.5729L120.642 15.8076L30.668 21.4983Z" fill="#334268"/>
<path id="Vector_13" fill-rule="evenodd" clip-rule="evenodd" d="M119.785 21.8093H117.971L55.207 21.8612L120.486 18.2056C127.687 19.9228 134.853 21.8715 142.023 23.727L123.931 22.0581L122.559 21.9303L119.788 21.8059L119.785 21.8093Z" fill="white"/>
</g>
<defs>
<clipPath id="clip0_1569_12856">
<rect width="142.386" height="55" fill="white" transform="translate(0.307129)"/>
</clipPath>
</defs>
</svg>
